<svg width="122" height="122" viewBox="0 0 122 122" fill="none" xmlns="http://www.w3.org/2000/svg">
<path d="M79.5995 76.2309C79.5995 87.7801 68.783 87.5132 67.6392 87.5132H45.6111V65.2673H67.6392C79.2292 65.2673 79.5995 73.9543 79.5995 76.2309ZM65.9426 56.3161C66.1251 56.3161 76.4107 56.5884 76.4107 46.4281C76.4107 42.2017 75.4548 36.6599 65.9426 36.6599H45.6111V56.3161H65.9426ZM122 20.3342V101.666C121.984 107.054 119.837 112.217 116.027 116.027C112.217 119.837 107.054 121.984 101.666 122H20.3342C14.9461 121.984 9.78321 119.837 5.97322 116.027C2.16323 112.217 0.0158052 107.054 0 101.666L0 20.3342C0.0158052 14.9461 2.16323 9.78321 5.97322 5.97322C9.78321 2.16323 14.9461 0.0158052 20.3342 0H101.666C107.054 0.0158052 112.217 2.16323 116.027 5.97322C119.837 9.78321 121.984 14.9461 122 20.3342ZM92.0583 77.8458C92.0583 71.9718 90.2473 61.9722 78.7009 59.505V59.3062C84.9398 56.6429 88.8694 51.6131 88.8694 44.1542C88.8694 42.2479 89.414 26.5132 67.7372 26.5132H33.1524V97.679C68.0722 97.679 71.242 98.1365 77.7042 96.124C81.5739 94.9204 92.0583 91.2277 92.0583 77.8458Z" fill="#684099"/>
</svg>
