<svg width="275" height="166" viewBox="0 0 275 166" fill="none" xmlns="http://www.w3.org/2000/svg">
<path d="M57.7505 152.522L53.9906 150.493L56.6547 148.29L34.3531 136.255L30.2494 137.681L26.468 135.64L40.1971 128.232C42.9901 126.724 46.1127 125.75 49.5646 125.31C53.0022 124.861 56.4757 124.943 59.9849 125.553C63.4942 126.148 66.7456 127.254 69.7392 128.869L70.3193 129.182C73.2842 130.782 75.3325 132.529 76.4641 134.423C77.5956 136.301 77.7603 138.168 76.9582 140.023C76.1561 141.878 74.3585 143.559 71.5654 145.067L57.7505 152.522ZM62.6061 144.731L66.452 142.655C68.1851 141.72 69.2021 140.684 69.5029 139.548C69.8036 138.396 69.4742 137.221 68.5145 136.023C67.5549 134.825 66.0581 133.677 64.0241 132.579L63.4225 132.255C61.36 131.142 59.2258 130.33 57.02 129.82C54.7998 129.302 52.637 129.132 50.5314 129.31C48.4259 129.472 46.5065 130.021 44.7734 130.956L40.9276 133.032L62.6061 144.731ZM100.119 130.145C97.8848 131.35 95.4498 132.139 92.8143 132.51C90.1788 132.865 87.5433 132.827 84.9077 132.394C82.2865 131.953 79.873 131.138 77.6672 129.948L76.8078 129.484C74.5017 128.239 72.8904 126.906 71.9737 125.484C71.0426 124.054 70.8493 122.643 71.3936 121.252C71.9378 119.845 73.2842 118.569 75.4328 117.425C78.5696 115.733 81.8926 114.936 85.4019 115.037C88.8968 115.13 92.3058 116.073 95.6288 117.866L99.045 119.71L85.3804 127.084L85.4663 127.176C87.1135 127.942 88.8825 128.347 90.7732 128.394C92.6639 128.44 94.44 128.015 96.1015 127.118C97.2474 126.5 98.1713 125.847 98.8731 125.159C99.575 124.456 100.112 123.694 100.484 122.875L106.049 124.046C105.863 124.981 105.297 125.982 104.352 127.049C103.406 128.1 101.996 129.132 100.119 130.145ZM81.2767 124.823L89.0329 120.637L88.4743 120.336C87.0706 119.578 85.6669 119.138 84.2632 119.014C82.8595 118.875 81.4988 119.161 80.181 119.872C78.9205 120.552 78.4407 121.329 78.7415 122.202C79.028 123.068 79.8157 123.934 81.1049 124.8L81.2767 124.823ZM119.843 119.014L93.7381 112.509L90.8376 113.657L87.0563 111.617L98.336 105.529L102.096 107.558L100.076 109.112L114.128 112.915L116.469 113.599L116.598 113.53L115.395 112.231L108.713 104.474L105.405 105.773L101.645 103.744L112.903 97.6683L116.684 99.709L114.536 101.332L126.224 115.57L119.843 119.014ZM149.148 103.686C146.914 104.892 144.479 105.68 141.843 106.051C139.208 106.407 136.572 106.368 133.937 105.935C131.316 105.495 128.902 104.679 126.696 103.489L125.837 103.025C123.531 101.781 121.92 100.447 121.003 99.0249C120.072 97.5949 119.878 96.1842 120.423 94.7929C120.967 93.3861 122.313 92.1107 124.462 90.9667C127.599 89.2739 130.922 88.4777 134.431 88.5782C137.926 88.671 141.335 89.614 144.658 91.4073L148.074 93.2508L134.41 100.625L134.496 100.718C136.143 101.483 137.912 101.889 139.802 101.935C141.693 101.981 143.469 101.556 145.131 100.66C146.277 100.041 147.2 99.3882 147.902 98.7002C148.604 97.9968 149.141 97.2355 149.514 96.4161L155.078 97.5872C154.892 98.5224 154.326 99.5234 153.381 100.59C152.436 101.641 151.025 102.673 149.148 103.686ZM130.306 98.364L138.062 94.1784L137.503 93.8769C136.1 93.1194 134.696 92.6788 133.292 92.5551C131.889 92.416 130.528 92.702 129.21 93.4131C127.95 94.0933 127.47 94.8702 127.771 95.7436C128.057 96.6093 128.845 97.4751 130.134 98.3408L130.306 98.364ZM160.385 97.135L156.625 95.1059L159.01 93.1233L134.324 79.8011L130.327 81.262L126.546 79.2214L136.171 74.0271L165.284 89.7377L168.958 88.4507L172.718 90.4797L160.385 97.135ZM185.888 83.8592C183.582 85.1037 181.104 85.8999 178.454 86.2477C175.819 86.5878 173.176 86.5144 170.526 86.0274C167.862 85.5327 165.37 84.6592 163.049 83.407L162.598 83.1635C160.292 81.9191 158.688 80.5818 157.785 79.1518C156.869 77.7141 156.726 76.2841 157.356 74.8619C157.986 73.4241 159.44 72.0908 161.717 70.8617C164.009 69.625 166.473 68.8366 169.108 68.4965C171.758 68.1486 174.415 68.2221 177.079 68.7168C179.729 69.2037 182.214 70.0733 184.535 71.3255L184.986 71.569C187.306 72.8212 188.925 74.1662 189.841 75.6039C190.744 77.0339 190.88 78.46 190.25 79.8823C189.619 81.3046 188.166 82.6302 185.888 83.8592ZM181.075 81.262C182.694 80.3886 183.231 79.4031 182.687 78.3054C182.157 77.2001 180.839 76.0793 178.734 74.943L178.282 74.6995C176.22 73.5865 174.157 72.8831 172.095 72.5893C170.032 72.2956 168.184 72.5893 166.551 73.4705C164.919 74.3517 164.381 75.345 164.94 76.4503C165.499 77.5557 166.809 78.6649 168.872 79.7779L169.323 80.0214C171.443 81.1654 173.52 81.8843 175.554 82.178C177.573 82.464 179.414 82.1587 181.075 81.262ZM207.975 81.0997L204.193 79.0591L206.578 77.0764L183.245 64.4847L179.249 65.9457L175.468 63.905L184.578 58.9889L187.585 60.2875C187.27 59.3754 187.328 58.5097 187.757 57.6903C188.187 56.871 189.075 56.098 190.421 55.3714C192.298 54.3589 194.418 53.7714 196.781 53.6091C199.13 53.439 201.572 53.6593 204.108 54.27C206.657 54.8729 209.157 55.8352 211.606 57.157L212.057 57.4005C214.349 58.6372 215.996 59.9126 216.999 61.2267C217.987 62.533 218.288 63.8084 217.901 65.0529C217.514 66.2819 216.383 67.4027 214.506 68.4153C212.057 69.7371 209.257 70.2897 206.106 70.0733L212.831 73.7024L216.504 72.4154L220.286 74.4561L207.975 81.0997ZM207.824 66.8268C209.429 65.9611 209.994 65.0142 209.522 63.9862C209.063 62.9504 207.817 61.8837 205.783 60.7861L205.332 60.5426C203.141 59.36 200.992 58.6025 198.887 58.2701C196.781 57.9377 194.933 58.2005 193.343 59.0585C191.596 60.0015 191.066 61.0914 191.754 62.3282L201.938 67.824C204.072 68.1254 206.034 67.7931 207.824 66.8268ZM237.71 55.8932C235.476 57.099 233.041 57.8875 230.405 58.2585C227.77 58.614 225.134 58.5754 222.499 58.1425C219.878 57.7019 217.464 56.8865 215.258 55.6961L214.399 55.2323C212.093 53.9878 210.481 52.6545 209.565 51.2322C208.634 49.8022 208.44 48.3915 208.985 47.0002C209.529 45.5934 210.875 44.318 213.024 43.174C216.161 41.4812 219.484 40.685 222.993 40.7855C226.488 40.8783 229.897 41.8213 233.22 43.6146L236.636 45.4581L222.972 52.8322L223.057 52.925C224.705 53.6902 226.474 54.096 228.364 54.1424C230.255 54.1888 232.031 53.7637 233.693 52.867C234.839 52.2486 235.762 51.5955 236.464 50.9075C237.166 50.2041 237.703 49.4428 238.076 48.6234L243.64 49.7945C243.454 50.7298 242.888 51.7308 241.943 52.7975C240.998 53.8487 239.587 54.8806 237.71 55.8932ZM218.868 50.5713L226.624 46.3857L226.065 46.0842C224.662 45.3267 223.258 44.8861 221.854 44.7624C220.451 44.6233 219.09 44.9093 217.772 45.6204C216.512 46.3006 216.032 47.0775 216.333 47.9509C216.619 48.8167 217.407 49.6824 218.696 50.5481L218.868 50.5713ZM249.764 48.9017L246.004 46.8726L248.367 44.9016L233.95 37.1216L229.976 38.571L226.194 36.5303L235.368 31.5795L238.484 33.0056L239.042 33.2607C237.639 31.2664 238.083 29.6509 240.375 28.4141C240.747 28.2132 241.177 28.0122 241.664 27.8112C242.165 27.6025 242.652 27.4325 243.125 27.3011L248.238 30.7794L244.951 32.3679C244.02 32.8239 243.447 33.2954 243.232 33.7824C243.032 34.2617 243.039 34.7911 243.254 35.3709L254.641 41.516L258.293 40.2406L262.053 42.2696L249.764 48.9017Z" fill="#FFFA65"/>
</svg>
