<svg width="120" height="120" viewBox="0 0 120 120" fill="none" xmlns="http://www.w3.org/2000/svg">
<path d="M117.736 54.6563L65.3571 2.26254C63.9071 0.813789 61.9412 0 59.8915 0C57.8418 0 55.8759 0.813789 54.4259 2.26254L43.5349 13.1458L57.3348 26.946C64.583 24.4977 71.4455 31.438 68.9571 38.6462L82.2588 51.9482C91.4276 48.7874 98.6463 60.2519 91.7597 67.1333C84.6642 74.2289 72.9535 66.3645 76.7598 57.1313L64.3446 44.732V77.371C71.1214 80.7299 70.3071 88.581 66.7768 92.1033C65.0519 93.8272 62.7131 94.7956 60.2745 94.7956C57.836 94.7956 55.4972 93.8272 53.7723 92.1033C49.0661 87.389 50.8072 79.538 56.7857 77.1031V44.1561C51.2143 41.8766 50.1965 35.922 51.7929 32.1023L38.1885 18.4816L2.2636 54.4125C0.814225 55.8622 0 57.8283 0 59.8782C0 61.9282 0.814225 63.8943 2.2636 65.344L54.6589 117.738C56.1085 119.186 58.0739 120 60.1232 120C62.1725 120 64.1379 119.186 65.5875 117.738L117.736 65.5877C119.186 64.138 120 62.172 120 60.122C120 58.072 119.186 56.106 117.736 54.6563V54.6563Z" fill="#E94E31"/>
</svg>
