<svg width="120" height="120" viewBox="0 0 100 100" fill="none" xmlns="http://www.w3.org/2000/svg">
<mask id="path-1-inside-1" fill="white">
<path d="M81.6797 32.4062C80.625 32.0044 79.5703 31.625 78.5156 31.2679C78.6914 30.442 78.8477 29.6162 79.0039 28.7903C81.4063 15.4875 79.8242 4.79606 74.4922 1.26946C69.3555 -2.10089 60.9766 1.40338 52.5 9.84043C51.6602 10.6663 50.8398 11.5368 50.0586 12.4073C49.5312 11.8269 48.9844 11.2466 48.4375 10.6886C39.5508 1.67123 30.6445 -2.12321 25.3125 1.4257C20.1953 4.81838 18.6719 14.8848 20.8203 27.4734C21.0352 28.7234 21.2695 29.951 21.543 31.2009C20.293 31.6027 19.0625 32.0491 17.9102 32.5178C7.48047 36.647 0 43.1645 0 49.9053C0 56.8692 7.96875 63.8554 18.8086 68.0962C19.6875 68.4311 20.5664 68.7659 21.4648 69.056C21.1719 70.3952 20.918 71.7121 20.6836 73.0737C18.6328 85.4614 20.2344 95.2823 25.3516 98.6527C30.625 102.135 39.4922 98.5634 48.125 89.9254C48.8086 89.2335 49.4922 88.5193 50.1758 87.7604C51.0352 88.7201 51.9336 89.6353 52.832 90.5281C61.1914 98.7419 69.4531 102.068 74.5508 98.6973C79.8242 95.2153 81.543 84.6579 79.3164 71.8014C79.1406 70.8193 78.9453 69.8149 78.7305 68.7882C79.3555 68.5873 79.9609 68.3641 80.5664 68.1409C91.8359 63.8777 100 56.9808 100 49.9053C100 43.1422 92.3047 36.5801 81.6797 32.4062V32.4062ZM55.2539 13.4563C62.5195 6.22456 69.2969 3.38988 72.3828 5.42103C75.6836 7.58609 76.9531 16.3356 74.8828 27.8305C74.7461 28.5894 74.6094 29.326 74.4336 30.0626C70.0977 28.9466 65.7031 28.143 61.2891 27.6966C58.75 23.5451 55.9766 19.5721 52.9688 15.8446C53.7305 15.0187 54.4727 14.2375 55.2539 13.4563V13.4563ZM32.6562 61.4895C33.6523 63.4313 34.668 65.3732 35.7422 67.2704C32.6953 66.891 29.668 66.3329 26.6797 65.5964C27.5391 62.3823 28.6133 59.0566 29.8633 55.6639C30.7617 57.6281 31.6797 59.5699 32.6562 61.4895V61.4895ZM26.7383 34.6382C29.5508 33.924 32.5391 33.3436 35.6445 32.8972C34.6094 34.7498 33.5938 36.647 32.6367 38.5666C31.6797 40.4638 30.7422 42.4057 29.8633 44.3698C28.6328 41.0441 27.5977 37.7854 26.7383 34.6382ZM32.0898 50.0169C33.3789 46.9367 34.7852 43.9234 36.2695 40.9548C37.7539 37.9862 39.3555 35.1069 41.0352 32.2723C43.9648 32.0267 46.9531 31.8928 50 31.8928C53.0469 31.8928 56.0547 32.0267 58.9648 32.2723C60.625 35.0846 62.207 37.9639 63.7109 40.9102C65.2148 43.8565 66.6211 46.8697 67.9492 49.9276C66.6406 53.0078 65.2344 56.0433 63.7305 59.0342C62.2461 62.0028 60.6641 64.8821 59.0039 67.7391C56.0938 67.9846 53.0664 68.0962 50 68.0962C46.9336 68.0962 43.9648 67.9846 41.0937 67.7838C39.3945 64.9491 37.793 62.0475 36.2891 59.0789C34.7852 56.1103 33.3984 53.0971 32.0898 50.0169ZM67.3633 61.4448C68.3594 59.4806 69.2969 57.4941 70.2148 55.4853C71.4648 58.7218 72.5586 62.0028 73.5156 65.3732C70.4883 66.1544 67.4219 66.757 64.3359 67.1588C65.3906 65.2839 66.3867 63.3644 67.3633 61.4448ZM70.1758 44.3698C69.2578 42.4057 68.3203 40.4415 67.3437 38.5219C66.3867 36.6247 65.3906 34.7498 64.3555 32.8972C67.5 33.3436 70.5078 33.9463 73.3203 34.6829C72.4219 37.9862 71.3672 41.2004 70.1758 44.3698V44.3698ZM50.0391 19.2596C52.0898 21.8041 54.0234 24.4825 55.8203 27.2502C51.9531 27.0493 48.0664 27.0493 44.1992 27.2502C46.1133 24.3709 48.0859 21.6925 50.0391 19.2596ZM27.3828 5.57727C30.6641 3.38988 37.9492 6.51472 45.625 14.2822C46.1133 14.7732 46.6016 15.3089 47.1094 15.8446C44.082 19.5721 41.2891 23.5451 38.7305 27.6966C34.3164 28.143 29.9414 28.9242 25.6055 30.0179C25.3516 28.8796 25.1367 27.7189 24.9219 26.5583C23.0859 15.7553 24.2969 7.60841 27.3828 5.57727V5.57727ZM22.5977 64.4134C21.7773 64.1456 20.9766 63.8554 20.1758 63.5429C16.0156 62.0475 11.2891 59.6815 7.87109 56.579C5.89844 55.0166 4.57031 52.606 4.19922 49.9053C4.19922 45.8207 10.3711 40.5977 19.2773 37.0488C20.3906 36.6024 21.5234 36.2006 22.6562 35.8212C23.9844 40.6647 25.5859 45.4189 27.4414 50.0169C25.5664 54.6818 23.9453 59.503 22.5977 64.4134V64.4134ZM45.3711 86.2872C42.1484 89.6576 38.418 92.336 34.3555 94.1663C32.1875 95.3493 29.6875 95.4609 27.4609 94.4564C24.3555 92.403 23.0664 84.5239 24.8242 73.9218C25.0391 72.6719 25.2734 71.422 25.5469 70.1944C29.9219 71.2657 34.3359 72.0023 38.8086 72.3817C41.3867 76.5556 44.2187 80.5509 47.2461 84.3007C46.6211 84.9927 45.9961 85.6623 45.3711 86.2872ZM50.1562 80.8634C48.1641 78.4082 46.1719 75.6851 44.2383 72.7612C46.1133 72.8505 48.0469 72.8951 50 72.8951C52.0117 72.8951 53.9844 72.8505 55.9375 72.7389C54.1406 75.5735 52.207 78.2743 50.1562 80.8634V80.8634ZM75.6836 87.5595C75.5078 90.2826 74.3359 92.8271 72.4609 94.5457C69.3555 96.5992 62.7344 93.9208 55.5859 86.9122C54.7656 86.1087 53.9453 85.2382 53.1055 84.3454C56.0937 80.5733 58.8477 76.5779 61.3477 72.3817C65.8203 71.9576 70.2734 71.1764 74.668 70.0381C74.8633 70.9532 75.0391 71.8684 75.1953 72.7612C76.1523 77.5823 76.3086 82.6044 75.6836 87.5595V87.5595ZM79.2383 63.5652C78.6914 63.7661 78.1445 63.967 77.5781 64.1456C76.2109 59.2798 74.5313 54.5255 72.5977 49.9053C74.4727 45.3519 76.0547 40.6647 77.3828 35.8658C78.3984 36.2006 79.375 36.5578 80.3125 36.9149C89.4141 40.4861 95.8008 45.7983 95.8008 49.8606C95.8008 54.2354 88.9844 59.8824 79.2383 63.5652ZM50 60.2172C54.9414 60.2172 58.9453 55.6416 58.9453 49.9945C58.9453 44.3475 54.9414 39.7719 50 39.7719C45.0586 39.7719 41.0547 44.3475 41.0547 49.9945C41.0547 55.6416 45.0586 60.2172 50 60.2172Z"/>
</mask>
<path d="M81.6797 32.4062C80.625 32.0044 79.5703 31.625 78.5156 31.2679C78.6914 30.442 78.8477 29.6162 79.0039 28.7903C81.4063 15.4875 79.8242 4.79606 74.4922 1.26946C69.3555 -2.10089 60.9766 1.40338 52.5 9.84043C51.6602 10.6663 50.8398 11.5368 50.0586 12.4073C49.5312 11.8269 48.9844 11.2466 48.4375 10.6886C39.5508 1.67123 30.6445 -2.12321 25.3125 1.4257C20.1953 4.81838 18.6719 14.8848 20.8203 27.4734C21.0352 28.7234 21.2695 29.951 21.543 31.2009C20.293 31.6027 19.0625 32.0491 17.9102 32.5178C7.48047 36.647 0 43.1645 0 49.9053C0 56.8692 7.96875 63.8554 18.8086 68.0962C19.6875 68.4311 20.5664 68.7659 21.4648 69.056C21.1719 70.3952 20.918 71.7121 20.6836 73.0737C18.6328 85.4614 20.2344 95.2823 25.3516 98.6527C30.625 102.135 39.4922 98.5634 48.125 89.9254C48.8086 89.2335 49.4922 88.5193 50.1758 87.7604C51.0352 88.7201 51.9336 89.6353 52.832 90.5281C61.1914 98.7419 69.4531 102.068 74.5508 98.6973C79.8242 95.2153 81.543 84.6579 79.3164 71.8014C79.1406 70.8193 78.9453 69.8149 78.7305 68.7882C79.3555 68.5873 79.9609 68.3641 80.5664 68.1409C91.8359 63.8777 100 56.9808 100 49.9053C100 43.1422 92.3047 36.5801 81.6797 32.4062V32.4062ZM55.2539 13.4563C62.5195 6.22456 69.2969 3.38988 72.3828 5.42103C75.6836 7.58609 76.9531 16.3356 74.8828 27.8305C74.7461 28.5894 74.6094 29.326 74.4336 30.0626C70.0977 28.9466 65.7031 28.143 61.2891 27.6966C58.75 23.5451 55.9766 19.5721 52.9688 15.8446C53.7305 15.0187 54.4727 14.2375 55.2539 13.4563V13.4563ZM32.6562 61.4895C33.6523 63.4313 34.668 65.3732 35.7422 67.2704C32.6953 66.891 29.668 66.3329 26.6797 65.5964C27.5391 62.3823 28.6133 59.0566 29.8633 55.6639C30.7617 57.6281 31.6797 59.5699 32.6562 61.4895V61.4895ZM26.7383 34.6382C29.5508 33.924 32.5391 33.3436 35.6445 32.8972C34.6094 34.7498 33.5938 36.647 32.6367 38.5666C31.6797 40.4638 30.7422 42.4057 29.8633 44.3698C28.6328 41.0441 27.5977 37.7854 26.7383 34.6382ZM32.0898 50.0169C33.3789 46.9367 34.7852 43.9234 36.2695 40.9548C37.7539 37.9862 39.3555 35.1069 41.0352 32.2723C43.9648 32.0267 46.9531 31.8928 50 31.8928C53.0469 31.8928 56.0547 32.0267 58.9648 32.2723C60.625 35.0846 62.207 37.9639 63.7109 40.9102C65.2148 43.8565 66.6211 46.8697 67.9492 49.9276C66.6406 53.0078 65.2344 56.0433 63.7305 59.0342C62.2461 62.0028 60.6641 64.8821 59.0039 67.7391C56.0938 67.9846 53.0664 68.0962 50 68.0962C46.9336 68.0962 43.9648 67.9846 41.0937 67.7838C39.3945 64.9491 37.793 62.0475 36.2891 59.0789C34.7852 56.1103 33.3984 53.0971 32.0898 50.0169ZM67.3633 61.4448C68.3594 59.4806 69.2969 57.4941 70.2148 55.4853C71.4648 58.7218 72.5586 62.0028 73.5156 65.3732C70.4883 66.1544 67.4219 66.757 64.3359 67.1588C65.3906 65.2839 66.3867 63.3644 67.3633 61.4448ZM70.1758 44.3698C69.2578 42.4057 68.3203 40.4415 67.3437 38.5219C66.3867 36.6247 65.3906 34.7498 64.3555 32.8972C67.5 33.3436 70.5078 33.9463 73.3203 34.6829C72.4219 37.9862 71.3672 41.2004 70.1758 44.3698V44.3698ZM50.0391 19.2596C52.0898 21.8041 54.0234 24.4825 55.8203 27.2502C51.9531 27.0493 48.0664 27.0493 44.1992 27.2502C46.1133 24.3709 48.0859 21.6925 50.0391 19.2596ZM27.3828 5.57727C30.6641 3.38988 37.9492 6.51472 45.625 14.2822C46.1133 14.7732 46.6016 15.3089 47.1094 15.8446C44.082 19.5721 41.2891 23.5451 38.7305 27.6966C34.3164 28.143 29.9414 28.9242 25.6055 30.0179C25.3516 28.8796 25.1367 27.7189 24.9219 26.5583C23.0859 15.7553 24.2969 7.60841 27.3828 5.57727V5.57727ZM22.5977 64.4134C21.7773 64.1456 20.9766 63.8554 20.1758 63.5429C16.0156 62.0475 11.2891 59.6815 7.87109 56.579C5.89844 55.0166 4.57031 52.606 4.19922 49.9053C4.19922 45.8207 10.3711 40.5977 19.2773 37.0488C20.3906 36.6024 21.5234 36.2006 22.6562 35.8212C23.9844 40.6647 25.5859 45.4189 27.4414 50.0169C25.5664 54.6818 23.9453 59.503 22.5977 64.4134V64.4134ZM45.3711 86.2872C42.1484 89.6576 38.418 92.336 34.3555 94.1663C32.1875 95.3493 29.6875 95.4609 27.4609 94.4564C24.3555 92.403 23.0664 84.5239 24.8242 73.9218C25.0391 72.6719 25.2734 71.422 25.5469 70.1944C29.9219 71.2657 34.3359 72.0023 38.8086 72.3817C41.3867 76.5556 44.2187 80.5509 47.2461 84.3007C46.6211 84.9927 45.9961 85.6623 45.3711 86.2872ZM50.1562 80.8634C48.1641 78.4082 46.1719 75.6851 44.2383 72.7612C46.1133 72.8505 48.0469 72.8951 50 72.8951C52.0117 72.8951 53.9844 72.8505 55.9375 72.7389C54.1406 75.5735 52.207 78.2743 50.1562 80.8634V80.8634ZM75.6836 87.5595C75.5078 90.2826 74.3359 92.8271 72.4609 94.5457C69.3555 96.5992 62.7344 93.9208 55.5859 86.9122C54.7656 86.1087 53.9453 85.2382 53.1055 84.3454C56.0937 80.5733 58.8477 76.5779 61.3477 72.3817C65.8203 71.9576 70.2734 71.1764 74.668 70.0381C74.8633 70.9532 75.0391 71.8684 75.1953 72.7612C76.1523 77.5823 76.3086 82.6044 75.6836 87.5595V87.5595ZM79.2383 63.5652C78.6914 63.7661 78.1445 63.967 77.5781 64.1456C76.2109 59.2798 74.5313 54.5255 72.5977 49.9053C74.4727 45.3519 76.0547 40.6647 77.3828 35.8658C78.3984 36.2006 79.375 36.5578 80.3125 36.9149C89.4141 40.4861 95.8008 45.7983 95.8008 49.8606C95.8008 54.2354 88.9844 59.8824 79.2383 63.5652ZM50 60.2172C54.9414 60.2172 58.9453 55.6416 58.9453 49.9945C58.9453 44.3475 54.9414 39.7719 50 39.7719C45.0586 39.7719 41.0547 44.3475 41.0547 49.9945C41.0547 55.6416 45.0586 60.2172 50 60.2172Z" fill="#61DAFB" stroke="black" stroke-width="2" mask="url(#path-1-inside-1)"/>
</svg>
