<svg width="120" height="120" viewBox="0 0 100 100" fill="none" xmlns="http://www.w3.org/2000/svg">
<rect width="100" height="100" rx="6" fill="#2F74C0"/>
<path d="M58.13 50.25H45.05V87H36.98V50.25H23.9V43.62H58.13V50.25ZM86.7894 51.51C86.5494 51.93 86.2894 52.24 86.0094 52.44C85.7494 52.62 85.4194 52.71 85.0194 52.71C84.5994 52.71 84.1394 52.56 83.6394 52.26C83.1594 51.94 82.5794 51.59 81.8994 51.21C81.2194 50.83 80.4194 50.49 79.4994 50.19C78.5994 49.87 77.5294 49.71 76.2894 49.71C75.1694 49.71 74.1894 49.85 73.3494 50.13C72.5094 50.39 71.7994 50.76 71.2194 51.24C70.6594 51.72 70.2394 52.3 69.9594 52.98C69.6794 53.64 69.5394 54.37 69.5394 55.17C69.5394 56.19 69.8194 57.04 70.3794 57.72C70.9594 58.4 71.7194 58.98 72.6594 59.46C73.5994 59.94 74.6694 60.37 75.8694 60.75C77.0694 61.13 78.2994 61.54 79.5594 61.98C80.8194 62.4 82.0494 62.9 83.2494 63.48C84.4494 64.04 85.5194 64.76 86.4594 65.64C87.3994 66.5 88.1494 67.56 88.7094 68.82C89.2894 70.08 89.5794 71.61 89.5794 73.41C89.5794 75.37 89.2394 77.21 88.5594 78.93C87.8994 80.63 86.9194 82.12 85.6194 83.4C84.3394 84.66 82.7694 85.66 80.9094 86.4C79.0494 87.12 76.9194 87.48 74.5194 87.48C73.1394 87.48 71.7794 87.34 70.4394 87.06C69.0994 86.8 67.8094 86.42 66.5694 85.92C65.3494 85.42 64.1994 84.82 63.1194 84.12C62.0394 83.42 61.0794 82.64 60.2394 81.78L62.6094 77.91C62.8094 77.63 63.0694 77.4 63.3894 77.22C63.7094 77.02 64.0494 76.92 64.4094 76.92C64.9094 76.92 65.4494 77.13 66.0294 77.55C66.6094 77.95 67.2994 78.4 68.0994 78.9C68.8994 79.4 69.8294 79.86 70.8894 80.28C71.9694 80.68 73.2594 80.88 74.7594 80.88C77.0594 80.88 78.8394 80.34 80.0994 79.26C81.3594 78.16 81.9894 76.59 81.9894 74.55C81.9894 73.41 81.6994 72.48 81.1194 71.76C80.5594 71.04 79.8094 70.44 78.8694 69.96C77.9294 69.46 76.8594 69.04 75.6594 68.7C74.4594 68.36 73.2394 67.99 71.9994 67.59C70.7594 67.19 69.5394 66.71 68.3394 66.15C67.1394 65.59 66.0694 64.86 65.1294 63.96C64.1894 63.06 63.4294 61.94 62.8494 60.6C62.2894 59.24 62.0094 57.57 62.0094 55.59C62.0094 54.01 62.3194 52.47 62.9394 50.97C63.5794 49.47 64.4994 48.14 65.6994 46.98C66.8994 45.82 68.3794 44.89 70.1394 44.19C71.8994 43.49 73.9194 43.14 76.1994 43.14C78.7594 43.14 81.1194 43.54 83.2794 44.34C85.4394 45.14 87.2794 46.26 88.7994 47.7L86.7894 51.51Z" fill="white"/>
</svg>
