<svg width="115" height="256" viewBox="0 0 115 256" fill="none" xmlns="http://www.w3.org/2000/svg">
<g filter="url(#filter0_d)">
<path d="M24.1797 72L7.67578 10.2324L0.400391 9.5V0.90625H29.0137V9.5L21.3477 10.623L29.6973 45.1934L31.2109 51.541H31.5039L33.3105 45.1934L47.373 0.90625H57.8711L72.4707 46.4141L74.1797 52.0293H74.4727L75.9375 46.4141L84.5801 10.623L76.4746 9.5V0.90625H104.551V9.5L97.7637 10.2324L81.0645 72H68.1738L54.6973 30.4473L52.9883 24.5879H52.6953L50.791 30.6426L37.168 72H24.1797ZM23.3008 162V153.455L30.8691 151.99V100.965L23.3008 99.5V90.9062H78.4766V110.096H67.5391L66.9043 101.893H45.127V119.764H69.1992V130.75H45.127V151.062H68.0762L68.7109 142.566H79.5508V162H23.3008ZM22.4219 252V243.455L29.9902 241.99V190.965L22.4219 189.5V180.906H54.0137C62.3796 180.906 68.9062 182.534 73.5938 185.789C78.2812 189.044 80.625 193.911 80.625 200.389C80.625 203.676 79.7461 206.622 77.9883 209.227C76.263 211.798 73.7402 213.735 70.4199 215.037C74.6842 215.949 77.8743 217.902 79.9902 220.896C82.1387 223.891 83.2129 227.358 83.2129 231.297C83.2129 238.1 80.9668 243.26 76.4746 246.775C71.9824 250.258 65.6185 252 57.3828 252H22.4219ZM44.248 210.691H54.502C58.3105 210.691 61.2402 209.91 63.291 208.348C65.3418 206.785 66.3672 204.507 66.3672 201.512C66.3672 195.099 62.2493 191.893 54.0137 191.893H44.248V210.691ZM44.248 241.062H57.3828C65.1302 241.062 69.0039 237.807 69.0039 231.297C69.0039 227.814 68.1576 225.161 66.4648 223.338C64.7721 221.482 62.1029 220.555 58.457 220.555H44.248V241.062Z" fill="#F5F6FA"/>
</g>
<defs>
<filter id="filter0_d" x="0.400391" y="0.90625" width="114.15" height="255.094" filterUnits="userSpaceOnUse" color-interpolation-filters="sRGB">
<feFlood flood-opacity="0" result="BackgroundImageFix"/>
<feColorMatrix in="SourceAlpha" type="matrix" values="0 0 0 0 0 0 0 0 0 0 0 0 0 0 0 0 0 0 127 0"/>
<feOffset dx="10" dy="4"/>
<feColorMatrix type="matrix" values="0 0 0 0 0.0352941 0 0 0 0 0.517647 0 0 0 0 0.890196 0 0 0 0.28 0"/>
<feBlend mode="normal" in2="BackgroundImageFix" result="effect1_dropShadow"/>
<feBlend mode="normal" in="SourceGraphic" in2="effect1_dropShadow" result="shape"/>
</filter>
</defs>
</svg>
